<?xml version="1.0" standalone="no"?>
<!DOCTYPE svg PUBLIC "-//W3C//DTD SVG 20010904//EN"
 "http://www.w3.org/TR/2001/REC-SVG-20010904/DTD/svg10.dtd">
<svg version="1.0" xmlns="http://www.w3.org/2000/svg"
 width="300.000000pt" height="388.000000pt" viewBox="0 0 300.000000 388.000000"
 preserveAspectRatio="xMidYMid meet">
<metadata>
Created by potrace 1.10, written by Peter Selinger 2001-2011
</metadata>
<g transform="translate(0.000000,388.000000) scale(0.100000,-0.100000)"
fill="#9c1f1f" stroke="none">
<path d="M1468 3410 c-4 -36 -10 -78 -13 -95 l-7 -30 17 29 c11 21 15 49 13
95 l-3 66 -7 -65z"/>
<path d="M1516 3451 c-3 -4 -2 -28 3 -52 l9 -44 1 53 c1 51 -2 61 -13 43z"/>
<path d="M1536 3313 c3 -21 11 -42 17 -48 7 -7 8 -4 3 8 -3 10 -6 32 -6 48 0
16 -5 29 -10 29 -7 0 -8 -14 -4 -37z"/>
<path d="M1450 3245 c-10 -20 -11 -28 -2 -37 7 -7 12 -23 12 -37 0 -40 7 -20
14 42 7 61 -2 73 -24 32z"/>
<path d="M1512 3210 c-13 -76 -25 -216 -18 -209 14 13 36 80 25 73 -9 -5 -10
1 -6 26 4 18 7 49 7 69 0 27 3 32 10 21 7 -11 10 -8 9 15 0 17 -4 39 -8 50 -6
14 -11 3 -19 -45z"/>
<path d="M710 3230 c0 -5 14 -24 30 -42 20 -22 28 -26 23 -13 -18 46 -53 83
-53 55z"/>
<path d="M2260 3208 c-14 -17 -28 -39 -32 -48 -3 -10 -19 -27 -34 -39 -16 -13
-21 -21 -12 -21 17 0 32 16 82 88 39 56 37 71 -4 20z"/>
<path d="M1396 3180 c-16 -17 -27 -32 -25 -34 5 -5 69 49 69 58 0 13 -16 4
-44 -24z"/>
<path d="M2296 3169 c-25 -43 -27 -57 -7 -44 13 7 43 76 37 82 -2 3 -16 -15
-30 -38z"/>
<path d="M670 3188 c0 -10 5 -18 10 -18 6 0 10 -6 10 -12 0 -7 7 -22 15 -32
15 -19 15 -19 15 2 0 27 -49 86 -50 60z"/>
<path d="M780 3162 c0 -7 14 -26 30 -44 17 -17 30 -27 30 -21 0 5 -13 25 -30
43 -16 18 -30 28 -30 22z"/>
<path d="M1630 3130 c42 -38 90 -64 90 -50 0 5 -6 10 -14 10 -8 0 -16 4 -18 9
-1 4 -23 20 -48 35 l-45 27 35 -31z"/>
<path d="M1580 3125 c0 -11 59 -63 79 -70 11 -3 21 -11 21 -17 0 -6 3 -8 6 -5
4 3 16 1 28 -5 33 -17 6 5 -56 46 -32 20 -58 41 -58 47 0 5 -4 9 -10 9 -5 0
-10 -2 -10 -5z"/>
<path d="M2272 3098 c-6 -7 -13 -27 -17 -43 -6 -28 -5 -28 15 8 21 39 23 59 2
35z"/>
<path d="M1450 3022 c0 -47 -4 -82 -10 -82 -5 0 -9 -11 -8 -24 1 -14 6 -22 11
-19 4 3 6 7 3 10 -3 3 2 12 10 20 12 12 13 31 8 92 -4 42 -8 78 -10 80 -2 2
-4 -32 -4 -77z"/>
<path d="M815 3080 c5 -8 10 -20 11 -26 2 -16 107 -224 110 -221 5 5 -19 81
-27 87 -4 3 -16 23 -28 45 -14 27 -17 41 -10 46 8 4 2 13 -15 24 -14 9 -24 21
-21 25 3 4 -3 14 -12 21 -15 12 -16 12 -8 -1z"/>
<path d="M2145 3056 c-10 -7 -20 -24 -22 -36 -2 -13 -8 -31 -14 -39 -6 -9 3 0
21 19 53 59 62 91 15 56z"/>
<path d="M770 3028 c0 -24 5 -38 13 -38 6 0 23 -18 36 -40 41 -66 35 -36 -8
42 l-41 73 0 -37z"/>
<path d="M1140 3040 c-9 -7 -51 -8 -110 -4 -52 3 -92 3 -88 -1 4 -4 47 -9 97
-12 72 -4 94 -2 112 11 13 9 19 16 14 16 -6 0 -17 -5 -25 -10z"/>
<path d="M1837 3043 c18 -2 50 -2 70 0 21 2 7 4 -32 4 -38 0 -55 -2 -38 -4z"/>
<path d="M2181 2999 c-33 -45 -42 -78 -12 -41 11 12 24 22 29 22 9 0 24 51 17
58 -2 2 -17 -15 -34 -39z"/>
<path d="M1165 3004 c-27 -13 -39 -21 -25 -18 29 7 100 43 85 43 -5 0 -32 -12
-60 -25z"/>
<path d="M713 2950 c-5 -39 -6 -67 -2 -63 8 9 23 133 16 133 -2 0 -8 -32 -14
-70z"/>
<path d="M2059 2919 c-13 -22 -34 -52 -46 -67 -13 -15 -23 -30 -23 -34 0 -3
-12 -11 -27 -16 l-28 -10 26 -1 c23 -1 59 25 59 42 0 4 16 32 36 63 20 30 34
57 32 60 -2 2 -15 -14 -29 -37z"/>
<path d="M1503 2939 c-7 -7 -12 -31 -12 -53 1 -23 4 -31 6 -18 6 29 12 28 59
-11 50 -42 86 -67 98 -67 5 0 -9 12 -30 26 -55 37 -102 87 -106 113 -2 18 -5
20 -15 10z"/>
<path d="M860 2896 c0 -13 34 -80 47 -94 7 -7 13 -22 13 -33 0 -10 5 -19 10
-19 19 0 10 30 -30 91 -22 34 -40 59 -40 55z"/>
<path d="M2068 2867 c-37 -48 -43 -66 -12 -32 15 17 29 29 32 27 2 -2 7 0 10
4 4 4 1 4 -7 -1 -9 -5 -12 -3 -9 6 3 8 12 13 22 11 20 -4 21 4 2 11 -9 4 -24
-7 -38 -26z"/>
<path d="M1366 2857 c-27 -17 -44 -33 -38 -35 6 -2 28 9 49 24 21 16 40 29 42
31 2 2 2 5 0 7 -3 3 -26 -9 -53 -27z"/>
<path d="M1433 2851 c-18 -15 -53 -38 -78 -50 -25 -12 -45 -24 -45 -26 0 -7
34 8 72 32 21 13 42 23 48 23 5 0 11 6 11 13 1 6 5 -6 8 -28 l7 -40 5 53 c2
28 4 52 4 52 0 -1 -15 -13 -32 -29z"/>
<path d="M2251 2847 c-1 -21 26 -84 40 -93 10 -6 -1 28 -11 36 -3 3 -11 21
-17 40 -6 19 -11 27 -12 17z"/>
<path d="M2200 2836 c0 -3 7 -22 15 -42 8 -19 13 -37 12 -40 -1 -3 6 -10 16
-15 9 -6 17 -16 17 -23 0 -8 7 -19 16 -27 8 -7 -3 23 -25 66 -41 78 -51 95
-51 81z"/>
<path d="M2087 2812 c-10 -10 -17 -29 -16 -43 l0 -24 10 25 c6 13 17 33 26 42
9 10 12 18 6 18 -5 0 -17 -8 -26 -18z"/>
<path d="M975 2789 c-4 -6 13 -41 38 -77 24 -37 52 -83 62 -102 10 -20 20 -29
23 -22 6 19 -7 64 -18 57 -10 -6 -45 40 -59 78 -8 21 -7 28 7 36 16 10 16 10
-1 11 -10 0 -20 7 -23 15 -7 18 -20 19 -29 4z"/>
<path d="M1820 2770 c-11 -7 0 -10 37 -10 28 0 55 5 58 10 8 13 -75 13 -95 0z"/>
<path d="M2017 2766 c-8 -8 -16 -13 -19 -11 -2 2 -5 -7 -6 -20 -1 -14 3 -25 8
-25 6 0 16 -15 23 -32 l14 -33 -1 37 c-1 20 -4 34 -8 31 -12 -6 -10 15 3 39
14 25 6 33 -14 14z"/>
<path d="M1489 2723 c-3 -24 -3 -43 -2 -43 4 0 33 58 33 65 0 3 -4 4 -9 1 -5
-4 -11 0 -14 6 -2 7 -6 -6 -8 -29z"/>
<path d="M1900 2740 l-45 -7 38 -1 c35 -2 37 -4 27 -23 -21 -39 -5 -38 18 1
12 22 19 39 15 38 -4 0 -28 -4 -53 -8z"/>
<path d="M640 2723 c0 -25 -61 -75 -143 -117 -20 -11 -35 -21 -32 -24 6 -6 95
38 95 47 0 3 12 12 28 18 28 13 69 69 58 80 -3 4 -6 2 -6 -4z"/>
<path d="M960 2706 c0 -13 -3 -32 -7 -41 -6 -16 -5 -16 14 0 12 10 19 25 16
36 -8 30 -23 33 -23 5z"/>
<path d="M906 2659 c-15 -33 -25 -63 -22 -66 3 -3 13 12 22 33 9 22 21 49 27
61 6 13 8 25 5 28 -3 3 -17 -22 -32 -56z"/>
<path d="M1532 2703 c-6 -11 -4 -27 3 -41 11 -21 12 -20 12 18 0 44 -2 48 -15
23z"/>
<path d="M1970 2703 c0 -5 -22 -38 -50 -72 -27 -34 -50 -64 -50 -66 0 -2 19 6
43 18 30 15 37 23 25 25 -16 3 -14 9 14 48 17 24 28 47 25 51 -4 3 -7 2 -7 -4z"/>
<path d="M1446 2665 c4 -8 2 -15 -3 -15 -5 0 -9 -10 -10 -22 -2 -22 -1 -22 13
-4 16 22 19 56 4 56 -5 0 -7 -7 -4 -15z"/>
<path d="M1493 2650 c-8 -11 -9 -28 -3 -46 6 -22 9 -24 10 -9 1 17 3 16 16 -8
9 -16 18 -26 21 -23 3 3 0 13 -7 21 -7 9 -13 29 -12 45 1 36 -10 45 -25 20z"/>
<path d="M1122 2630 c0 -20 6 -33 18 -40 18 -10 18 -9 3 27 -20 49 -20 49 -21
13z"/>
<path d="M156 2610 c5 -5 25 -12 44 -15 l35 -6 -25 15 c-28 17 -70 22 -54 6z"/>
<path d="M1829 2578 c-29 -30 -33 -38 -19 -38 15 0 67 68 58 75 -2 1 -19 -16
-39 -37z"/>
<path d="M1439 2587 c-6 -12 -23 -31 -39 -42 -41 -27 -30 -30 19 -5 31 15 41
26 41 45 0 31 -7 32 -21 2z"/>
<path d="M110 2591 c0 -10 98 -56 105 -50 3 3 -20 17 -50 31 -30 14 -55 22
-55 19z"/>
<path d="M246 2590 c5 -4 29 -11 54 -14 30 -5 40 -4 30 3 -19 11 -95 22 -84
11z"/>
<path d="M2780 2580 c-25 -10 -58 -19 -75 -20 -29 -1 -29 -2 -7 -12 18 -9 32
-7 73 12 28 13 53 28 55 32 7 10 7 10 -46 -12z"/>
<path d="M1120 2557 c0 -25 39 -83 40 -59 0 10 5 10 20 2 11 -6 20 -7 20 -2 0
6 -9 12 -20 15 -11 3 -24 16 -29 30 -14 36 -31 43 -31 14z"/>
<path d="M1933 2564 c-33 -14 -41 -28 -23 -39 6 -3 10 1 10 9 0 9 4 16 8 16 5
0 17 7 28 15 23 18 19 18 -23 -1z"/>
<path d="M2525 2546 c17 -8 38 -15 48 -16 25 0 21 -29 -5 -39 -82 -32 -114
-46 -123 -54 -6 -7 -3 -7 10 -2 11 4 60 23 109 41 49 19 91 36 93 38 2 2 -25
11 -60 19 -35 9 -73 19 -83 22 -10 3 -5 -1 11 -9z"/>
<path d="M280 2540 c8 -5 22 -7 31 -5 9 3 33 -7 55 -23 21 -15 50 -33 64 -40
26 -12 44 -23 93 -56 15 -10 30 -16 33 -13 6 6 -58 57 -72 57 -5 0 -34 16 -64
35 -50 33 -52 35 -25 35 56 0 16 11 -56 15 -48 3 -69 1 -59 -5z"/>
<path d="M2820 2533 c-14 -10 -34 -25 -44 -35 -11 -10 -23 -18 -28 -18 -4 0
-8 -4 -8 -10 0 -11 80 41 100 65 16 20 10 19 -20 -2z"/>
<path d="M239 2528 c11 -15 11 -18 0 -18 -8 0 -6 -7 7 -20 25 -25 39 -43 41
-55 4 -20 43 -89 43 -76 0 22 -60 141 -71 141 -6 0 -8 4 -5 9 3 5 -2 15 -12
22 -15 13 -16 12 -3 -3z"/>
<path d="M1847 2522 c-10 -10 -17 -22 -17 -27 0 -5 -8 -17 -17 -28 -14 -15
-14 -18 -3 -13 8 3 22 8 30 12 14 5 40 48 40 66 0 14 -16 9 -33 -10z"/>
<path d="M1438 2488 c0 -18 -1 -41 0 -50 3 -33 -127 -107 -136 -78 -2 5 -11
10 -20 10 -13 0 -11 -4 6 -16 25 -17 66 -8 129 28 31 19 33 23 33 79 0 62 -9
82 -12 27z"/>
<path d="M1766 2508 c-17 -6 -24 -13 -17 -17 7 -5 1 -24 -21 -57 -38 -58 -45
-63 -78 -65 -23 0 -23 -1 -5 -9 30 -13 55 -12 55 3 0 7 13 28 30 47 16 19 29
41 30 48 0 6 4 12 9 12 5 0 16 11 25 25 18 27 15 29 -28 13z"/>
<path d="M295 2500 c6 -10 121 -70 134 -70 8 0 -99 64 -122 73 -11 4 -16 3
-12 -3z"/>
<path d="M1112 2454 c-1 -25 2 -43 7 -40 10 7 33 -18 58 -64 48 -87 -53 -183
-163 -156 -18 5 -24 3 -18 -5 7 -12 110 -7 145 6 17 6 69 93 69 114 0 6 -12
30 -27 53 -16 22 -36 52 -45 67 -21 31 -23 45 -5 35 7 -5 7 -1 -3 12 -8 10
-15 20 -16 22 0 1 -2 -18 -2 -44z"/>
<path d="M2673 2433 c-24 -26 -46 -56 -49 -65 -3 -10 -8 -18 -12 -18 -4 0 -8
-15 -9 -33 -1 -31 -1 -30 14 11 8 23 37 67 65 97 27 30 47 55 42 55 -4 0 -27
-21 -51 -47z"/>
<path d="M332 2430 c23 -46 29 -50 25 -17 -1 17 -31 57 -42 57 -1 0 6 -18 17
-40z"/>
<path d="M564 2452 c21 -24 42 -28 66 -12 11 8 7 10 -17 8 -17 -1 -39 4 -50
12 -17 14 -17 13 1 -8z"/>
<path d="M2613 2449 c-48 -22 -56 -35 -17 -25 19 5 24 4 18 -5 -4 -7 9 0 29
15 20 16 37 30 37 32 0 9 -28 2 -67 -17z"/>
<path d="M1500 2446 c0 -22 47 -77 69 -82 14 -3 32 -7 39 -10 6 -2 12 1 12 6
0 6 -11 10 -25 10 -14 0 -25 5 -25 10 0 6 -7 10 -16 10 -9 0 -21 14 -27 30 -9
25 -27 42 -27 26z"/>
<path d="M2375 2415 c-23 -10 -33 -10 -44 -2 -11 10 -13 9 -9 -3 7 -23 45 -24
81 -1 36 23 19 27 -28 6z"/>
<path d="M2440 2402 c-44 -16 -44 -17 -15 -20 16 -2 31 1 33 7 2 6 14 8 27 5
12 -3 26 -1 29 4 4 6 -3 8 -16 5 -19 -4 -20 -3 -8 6 21 15 3 12 -50 -7z"/>
<path d="M615 2388 c13 -20 59 -48 76 -48 5 0 0 9 -11 20 -11 11 -28 20 -37
20 -14 0 -15 2 -5 9 10 6 7 10 -12 13 -23 5 -24 4 -11 -14z"/>
<path d="M1478 2403 c-7 -15 3 -183 12 -183 13 0 21 33 10 40 -6 4 -10 22 -8
41 3 31 6 34 33 32 28 -2 28 -2 5 5 -17 5 -25 16 -26 31 -1 24 -19 48 -26 34z"/>
<path d="M2249 2381 l21 -19 -42 -21 c-24 -11 -37 -21 -30 -21 6 0 29 9 49 20
21 11 43 20 50 20 7 0 13 5 13 10 0 6 -11 10 -24 10 -14 0 -28 5 -31 10 -3 6
-11 10 -17 10 -6 0 -1 -8 11 -19z"/>
<path d="M1429 2354 c-17 -21 -57 -40 -100 -48 -30 -5 -39 -2 -57 19 -28 31
-51 34 -28 3 9 -13 35 -51 58 -85 40 -61 58 -76 58 -50 0 15 -20 46 -20 32 0
-5 -9 5 -21 24 -22 36 -15 51 24 51 10 0 31 7 48 15 16 9 33 14 37 11 4 -2 5
-27 4 -54 -3 -37 -8 -52 -20 -55 -10 -3 -3 -5 13 -6 l30 -1 0 80 c0 44 -3 80
-6 80 -4 0 -12 -7 -20 -16z"/>
<path d="M2334 2351 c-5 -3 -9 -22 -10 -41 0 -19 -4 -44 -8 -55 -5 -13 -2 -11
8 5 8 14 15 31 16 38 0 8 10 22 22 31 21 18 21 18 1 23 -12 3 -25 3 -29 -1z"/>
<path d="M636 2325 c3 -8 14 -17 25 -20 57 -16 60 -14 20 9 -50 30 -52 31 -45
11z"/>
<path d="M2556 2313 c-12 -66 -18 -118 -12 -112 8 8 27 131 21 137 -1 2 -6 -9
-9 -25z"/>
<path d="M1655 2321 c-11 -5 -24 -6 -28 -4 -5 3 -8 -1 -6 -8 3 -27 -1 -38 -27
-69 -21 -24 -29 -28 -40 -19 -10 8 -14 8 -14 1 0 -11 31 -32 47 -32 4 0 15 15
22 33 8 17 20 37 27 42 12 10 49 66 43 64 -2 0 -13 -4 -24 -8z"/>
<path d="M1681 2264 c-54 -84 -56 -89 -31 -91 15 -1 20 4 20 21 0 12 6 31 14
41 13 18 15 18 40 2 14 -10 26 -23 26 -29 0 -6 3 -8 6 -5 4 4 -5 22 -20 42
-22 29 -25 38 -16 56 7 11 10 23 7 25 -2 2 -23 -26 -46 -62z"/>
<path d="M2090 2291 c-30 -6 -32 -8 -14 -14 23 -8 54 0 54 14 0 5 -1 8 -2 8
-2 -1 -19 -5 -38 -8z"/>
<path d="M2188 2282 c-57 -18 -62 -30 -13 -30 32 0 63 17 33 18 -7 1 1 7 17
15 40 18 21 17 -37 -3z"/>
<path d="M748 2273 c18 -18 75 -53 86 -53 3 0 3 7 0 15 -4 8 -26 24 -51 35
-55 24 -58 25 -35 3z"/>
<path d="M862 2273 c3 -12 11 -17 28 -15 43 5 42 15 -3 26 -24 6 -28 4 -25
-11z"/>
<path d="M1232 2261 c1 -17 4 -28 9 -26 11 8 49 -50 49 -74 0 -13 -9 -25 -22
-31 -21 -8 -21 -9 -3 -9 11 0 30 8 43 19 l24 20 -41 48 c-23 27 -41 53 -41 60
0 6 -4 13 -9 17 -5 3 -9 -8 -9 -24z"/>
<path d="M2365 2270 c-12 -19 -24 -70 -17 -70 4 0 12 17 19 37 12 38 11 54 -2
33z"/>
<path d="M2578 2218 c-4 -65 0 -98 11 -98 3 0 6 36 6 80 0 95 -12 107 -17 18z"/>
<path d="M1990 2255 c0 -10 7 -14 23 -11 12 3 26 5 30 5 5 1 5 6 2 11 -10 16
-55 12 -55 -5z"/>
<path d="M850 2234 c0 -5 7 -19 15 -30 10 -14 14 -15 15 -5 0 12 2 12 13 -1
13 -17 176 -93 183 -86 2 3 -40 27 -93 54 -53 27 -98 47 -99 44 -2 -3 -10 4
-18 15 -9 11 -16 15 -16 9z"/>
<path d="M1802 2227 c7 -7 28 -22 45 -32 31 -18 34 -18 50 -2 16 15 15 16 -12
11 -19 -3 -38 2 -56 15 -32 23 -47 28 -27 8z"/>
<path d="M2058 2224 c-31 -16 -38 -27 -11 -17 11 4 14 3 9 -5 -9 -15 10 -16
27 -2 7 6 21 17 32 25 19 14 19 14 -5 14 -14 0 -37 -7 -52 -15z"/>
<path d="M1396 2175 c4 -8 20 -16 38 -16 24 -1 26 -3 8 -6 -15 -3 -22 -10 -18
-19 3 -8 0 -14 -7 -15 -7 0 -3 -4 8 -9 24 -10 45 12 45 48 0 21 -3 23 -30 17
-19 -4 -30 -3 -30 4 0 6 -4 11 -10 11 -5 0 -7 -7 -4 -15z"/>
<path d="M1530 2178 c0 -14 39 -43 47 -34 7 7 -6 25 -28 36 -14 8 -19 7 -19
-2z"/>
<path d="M2084 2165 c-9 -13 -14 -28 -12 -33 1 -5 13 6 25 24 12 19 18 34 13
34 -5 0 -17 -11 -26 -25z"/>
<path d="M1777 2160 c-3 -11 -9 -20 -14 -18 -4 1 -18 -2 -31 -6 -14 -5 -28 -3
-36 3 -10 9 -15 8 -19 -3 -3 -8 0 -20 8 -26 10 -9 20 -7 41 6 15 10 35 19 44
21 10 1 30 8 46 14 27 10 27 12 9 19 -32 14 -42 11 -48 -10z"/>
<path d="M1075 2152 c6 -5 26 -15 45 -21 33 -11 37 -10 43 15 1 4 -20 9 -48
11 -31 3 -46 1 -40 -5z"/>
<path d="M1607 2153 c-13 -12 -7 -23 13 -23 11 0 20 7 20 15 0 15 -21 21 -33
8z"/>
<path d="M1858 2149 c-9 -5 -15 -16 -12 -24 7 -17 20 -12 34 16 12 21 4 24
-22 8z"/>
<path d="M1890 2113 c-16 -28 -19 -41 -11 -57 9 -20 10 -20 10 4 1 14 10 40
21 58 11 17 16 32 11 32 -5 0 -19 -17 -31 -37z"/>
<path d="M1340 2126 c-6 -8 -17 -13 -24 -10 -17 6 -40 -22 -33 -40 6 -15 57
-28 57 -14 0 5 5 6 12 2 8 -5 9 -1 5 12 -7 18 -7 18 8 0 8 -11 15 -15 15 -9 0
7 -4 14 -9 18 -5 3 -8 17 -5 30 5 28 -7 33 -26 11z"/>
<path d="M1204 2099 c27 -15 41 -18 49 -10 6 6 7 11 2 12 -14 1 -39 6 -66 13
-14 4 -7 -3 15 -15z"/>
<path d="M1104 2101 c3 -5 35 -21 70 -37 51 -22 62 -30 50 -38 -9 -8 -11 -16
-4 -26 7 -11 11 -9 19 14 13 33 7 46 -20 46 -11 0 -37 11 -57 25 -36 25 -69
34 -58 16z"/>
<path d="M1585 2100 c-3 -5 -3 -10 2 -10 4 0 0 -5 -9 -11 -28 -16 -21 -27 17
-27 37 0 42 7 25 39 -12 21 -25 25 -35 9z"/>
<path d="M1733 2086 c-20 -11 -21 -13 -3 -23 14 -10 21 -8 34 6 9 10 13 21 9
24 -8 9 -13 8 -40 -7z"/>
<path d="M2600 2090 c0 -6 13 -34 30 -63 37 -64 38 -58 4 17 -25 54 -34 67
-34 46z"/>
<path d="M354 2074 c-17 -54 -27 -74 -37 -74 -6 0 -7 -3 -4 -7 4 -3 3 -11 -2
-17 -4 -6 -11 -20 -15 -30 -5 -16 -4 -17 9 -6 8 7 13 16 10 20 -3 4 1 13 9 19
16 14 50 100 42 108 -3 3 -8 -3 -12 -13z"/>
<path d="M1411 2058 c6 -13 21 -33 32 -45 24 -27 4 -32 -24 -7 -10 9 -23 13
-30 8 -15 -9 16 -34 44 -34 10 0 15 -5 12 -11 -4 -6 -19 -7 -36 -4 -30 7 -42
-11 -15 -21 15 -6 77 22 74 34 0 4 1 14 5 22 13 36 14 68 1 63 -9 -3 -12 -14
-8 -29 3 -13 2 -24 -4 -24 -5 0 -13 11 -16 25 -4 14 -11 23 -16 20 -6 -3 -10
1 -10 9 0 9 -5 16 -10 16 -7 0 -7 -8 1 -22z"/>
<path d="M1528 2063 c-9 -10 -21 -29 -28 -43 l-13 -25 22 20 c25 22 45 54 38
61 -2 2 -11 -4 -19 -13z"/>
<path d="M1671 2046 c-13 -15 -4 -26 21 -26 21 0 24 25 4 33 -8 3 -19 0 -25
-7z"/>
<path d="M1270 2014 c-6 -14 -10 -33 -10 -42 0 -15 -2 -15 -11 -2 -9 13 -10
13 -6 0 2 -8 14 -16 26 -18 20 -3 21 -1 12 16 -8 16 -6 25 10 46 17 22 18 26
4 26 -8 0 -20 -12 -25 -26z"/>
<path d="M1575 2028 c-16 -6 -39 -17 -50 -24 -18 -13 -18 -14 8 -14 15 0 30 7
33 15 4 8 9 13 13 11 3 -2 15 2 26 10 22 16 12 17 -30 2z"/>
<path d="M580 1999 c-21 -50 -102 -125 -123 -112 -6 3 -7 1 -3 -5 12 -20 27
-14 73 31 39 37 80 104 69 114 -2 2 -9 -11 -16 -28z"/>
<path d="M1117 2013 c-4 -3 -7 -14 -7 -24 0 -30 -20 -74 -28 -62 -5 8 -15 6
-32 -7 -18 -14 -21 -20 -9 -20 9 0 19 3 23 7 4 4 13 8 19 8 47 2 138 19 143
26 3 5 0 9 -5 9 -6 0 -11 8 -12 18 0 13 -2 12 -9 -5 -9 -23 -13 -25 -62 -28
-25 -2 -26 0 -22 29 3 17 7 37 10 44 4 13 1 15 -9 5z"/>
<path d="M1306 2013 c-3 -4 -6 -17 -6 -30 0 -24 14 -31 25 -13 4 6 10 8 15 5
4 -3 6 4 3 14 -5 20 -27 34 -37 24z"/>
<path d="M2080 2013 c0 -19 22 -63 32 -63 12 0 10 6 -12 42 -11 18 -20 28 -20
21z"/>
<path d="M2346 1991 c6 -22 43 -91 49 -91 7 0 -22 69 -38 91 l-18 24 7 -24z"/>
<path d="M1677 1980 c-9 -13 -17 -19 -17 -12 0 8 -5 10 -12 6 -8 -5 -5 -11 10
-17 27 -12 46 2 40 29 -3 17 -5 16 -21 -6z"/>
<path d="M1720 1980 c0 -16 7 -20 38 -20 20 0 54 -5 75 -11 44 -12 56 -7 37
16 -8 10 -16 12 -19 6 -4 -6 -21 -7 -45 -1 -21 5 -45 6 -52 3 -8 -3 -14 1 -14
11 0 9 -4 16 -10 16 -5 0 -10 -9 -10 -20z"/>
<path d="M1526 1965 c21 -16 54 -20 54 -6 0 11 -25 21 -53 21 -20 0 -20 0 -1
-15z"/>
<path d="M1900 1975 c0 -26 22 -39 67 -42 40 -2 44 0 24 8 -14 5 -33 8 -42 7
-10 -2 -25 6 -33 17 -9 11 -15 16 -16 10z"/>
<path d="M1471 1932 c-22 -31 -28 -62 -11 -62 5 0 12 16 16 35 7 40 16 39 18
-1 1 -15 7 -29 15 -32 11 -4 12 3 7 34 -10 54 -20 60 -45 26z"/>
<path d="M2670 1952 c0 -7 17 -31 38 -55 21 -23 53 -59 72 -79 18 -21 39 -38
46 -38 8 0 -10 24 -39 53 -30 28 -68 70 -85 92 -18 22 -32 34 -32 27z"/>
<path d="M1527 1930 c3 -11 14 -22 24 -25 10 -4 19 -10 19 -15 0 -4 7 -11 16
-14 10 -4 6 6 -11 26 -36 43 -55 54 -48 28z"/>
<path d="M2060 1940 c8 -5 11 -10 5 -10 -16 -1 27 -30 44 -30 11 1 8 8 -12 25
-15 14 -33 25 -40 25 -7 0 -6 -4 3 -10z"/>
<path d="M2120 1933 c0 -14 32 -40 50 -40 8 0 26 -3 40 -7 20 -5 21 -5 9 3 -9
6 -26 12 -37 14 -12 2 -30 11 -42 22 -11 10 -20 14 -20 8z"/>
<path d="M1277 1923 c-2 -5 -2 -27 1 -50 3 -33 8 -43 22 -43 10 0 20 7 24 15
3 9 0 15 -9 15 -15 0 -19 10 -16 42 2 17 -15 33 -22 21z"/>
<path d="M1595 1922 c6 -4 12 -16 13 -27 6 -30 10 -31 33 -8 27 26 19 40 -23
41 -18 0 -28 -2 -23 -6z"/>
<path d="M309 1904 c-7 -9 -37 -30 -66 -46 -29 -16 -53 -31 -53 -33 0 -1 11
-1 25 1 22 2 132 94 114 94 -4 0 -13 -7 -20 -16z"/>
<path d="M817 1913 c-34 -5 -31 -28 4 -29 18 -1 25 4 25 18 0 10 0 17 -1 17 0
-1 -13 -4 -28 -6z"/>
<path d="M1310 1908 c1 -39 39 -47 41 -10 0 11 2 12 6 4 2 -6 9 -10 14 -6 17
10 -2 24 -32 24 -17 0 -29 -5 -29 -12z"/>
<path d="M1829 1912 c9 -6 12 -19 8 -33 -6 -23 -6 -24 9 -4 8 11 22 19 30 17
8 -2 22 2 32 7 14 9 12 10 -13 11 -16 0 -41 3 -55 6 -18 4 -21 3 -11 -4z"/>
<path d="M1205 1900 c-11 -5 -42 -9 -69 -9 -43 -1 -47 -3 -36 -16 8 -9 20 -13
29 -10 9 4 38 9 65 12 42 5 48 3 43 -10 -4 -11 -2 -14 7 -11 11 4 11 10 2 30
-12 26 -12 26 -41 14z"/>
<path d="M1670 1900 c0 -5 -9 -18 -21 -29 -15 -13 -17 -21 -9 -26 13 -8 61 44
53 57 -6 11 -23 10 -23 -2z"/>
<path d="M696 1886 c4 -11 19 -16 48 -16 45 1 35 13 -21 25 -28 5 -32 4 -27
-9z"/>
<path d="M1920 1876 c-25 -11 -50 -28 -57 -36 -14 -17 -35 -129 -27 -141 14
-23 24 -4 20 42 -2 37 2 56 15 73 10 13 15 27 11 30 -4 4 -2 7 3 5 15 -3 98
38 88 44 -4 2 -28 -5 -53 -17z"/>
<path d="M2330 1881 l-25 -7 30 -6 c17 -4 38 -10 48 -14 17 -6 18 -5 6 15 -15
22 -19 23 -59 12z"/>
<path d="M2430 1871 c12 -23 25 -28 105 -37 68 -7 72 3 4 12 -24 3 -59 14 -77
25 -41 24 -45 24 -32 0z"/>
<path d="M512 1862 c-20 -18 -20 -18 21 -16 73 3 78 4 72 14 -4 6 -11 8 -16 5
-5 -4 -9 -1 -9 6 0 10 -3 10 -12 1 -15 -15 -32 -16 -23 -2 10 16 -10 11 -33
-8z"/>
<path d="M1015 1870 c-3 -5 6 -12 20 -16 29 -7 41 -1 30 15 -8 14 -42 14 -50
1z"/>
<path d="M1550 1871 c0 -5 -3 -16 -6 -25 -5 -13 1 -16 25 -16 17 0 31 5 31 10
0 6 -7 10 -16 10 -8 0 -13 4 -10 9 3 5 -1 11 -9 15 -8 3 -15 1 -15 -3z"/>
<path d="M1696 1855 c-20 -30 -20 -35 -2 -35 16 0 48 45 39 54 -11 11 -20 6
-37 -19z"/>
<path d="M1390 1850 c-24 -20 -25 -21 -6 -35 29 -22 37 -18 30 11 -5 19 -4 25
5 20 6 -4 11 -1 11 8 0 21 -10 20 -40 -4z"/>
<path d="M2099 1861 c11 -7 11 -9 0 -14 -8 -3 6 -6 30 -6 38 -1 42 1 31 14 -7
8 -27 15 -44 15 -21 0 -27 -3 -17 -9z"/>
<path d="M2695 1858 c4 -10 11 -18 16 -18 5 0 9 -6 9 -14 0 -9 -7 -12 -20 -9
-11 3 -20 1 -20 -5 0 -9 79 -27 86 -19 2 2 -15 21 -37 43 -22 21 -37 31 -34
22z"/>
<path d="M137 1847 c-22 -7 -36 -15 -33 -18 4 -4 -16 -9 -43 -13 -28 -4 -53
-12 -57 -18 -10 -16 62 -1 109 23 21 10 44 19 52 19 8 0 15 5 15 10 0 6 -1 10
-2 9 -2 0 -20 -6 -41 -12z"/>
<path d="M790 1850 c-7 -4 0 -12 20 -20 31 -13 47 -9 36 8 -8 14 -42 21 -56
12z"/>
<path d="M856 1850 c6 -6 28 -13 50 -17 37 -5 38 -5 19 10 -22 18 -86 24 -69
7z"/>
<path d="M2196 1848 c3 -5 9 -7 12 -4 3 3 13 -1 23 -10 19 -17 49 -13 49 6 0
5 -8 11 -17 12 -59 5 -72 4 -67 -4z"/>
<path d="M369 1840 c-16 -11 29 -16 76 -10 l40 6 -35 7 c-41 7 -65 6 -81 -3z"/>
<path d="M265 1830 c-4 -6 7 -10 24 -10 17 0 31 5 31 10 0 6 -11 10 -24 10
-14 0 -28 -4 -31 -10z"/>
<path d="M1247 1816 c4 -18 -3 -32 -23 -51 -26 -25 -29 -25 -41 -9 -7 10 -13
22 -13 28 0 5 -2 7 -5 4 -3 -3 -1 -17 4 -32 6 -14 7 -26 3 -26 -7 0 -34 -51
-29 -56 3 -3 147 134 147 141 0 3 -5 3 -10 0 -6 -3 -13 1 -16 9 -10 25 -22 19
-17 -8z"/>
<path d="M1336 1832 c-5 -8 15 -41 45 -76 5 -5 15 -4 24 4 21 17 19 30 -4 30
-11 0 -29 11 -39 25 -11 14 -23 22 -26 17z"/>
<path d="M579 1816 c7 -9 25 -16 40 -16 29 1 17 11 -29 25 -22 7 -23 6 -11 -9z"/>
<path d="M2370 1819 c25 -10 25 -10 -33 -62 -32 -29 -57 -56 -57 -61 0 -4 12
5 28 20 50 52 96 84 121 84 24 0 24 1 5 15 -10 8 -35 14 -54 14 -33 0 -34 -1
-10 -10z"/>
<path d="M1720 1812 c0 -12 79 -86 85 -80 8 8 -6 38 -17 38 -6 0 -21 11 -34
25 -24 26 -34 31 -34 17z"/>
<path d="M875 1788 c15 -11 40 -39 56 -61 16 -22 29 -35 29 -28 0 22 -75 110
-94 110 -15 1 -14 -3 9 -21z"/>
<path d="M1660 1802 c0 -10 41 -47 54 -49 17 -3 25 -27 14 -46 -8 -16 -7 -18
9 -13 11 4 34 -1 52 -10 49 -24 48 -10 -1 24 -24 16 -54 42 -68 57 -28 30 -60
50 -60 37z"/>
<path d="M2531 1792 c20 -10 60 -22 88 -26 28 -4 59 -10 68 -13 15 -6 14 -7
-3 -15 -12 -5 -1 -6 31 -3 27 3 54 10 60 16 7 7 5 8 -7 4 -9 -4 -33 -1 -55 5
-21 6 -69 17 -108 24 -38 8 -79 17 -90 21 -11 3 -4 -2 16 -13z"/>
<path d="M375 1790 c-8 -13 55 -13 75 0 11 7 4 10 -27 10 -23 0 -45 -4 -48
-10z"/>
<path d="M1543 1788 c2 -8 18 -12 43 -10 62 5 66 22 5 22 -38 0 -51 -4 -48
-12z"/>
<path d="M203 1779 c-16 -5 -15 -7 5 -13 28 -9 102 2 102 15 0 10 -77 8 -107
-2z"/>
<path d="M1300 1780 c0 -5 -26 -29 -57 -52 -44 -33 -52 -44 -38 -47 11 -2 27
6 37 19 10 12 18 19 18 16 0 -3 10 4 23 17 12 12 21 25 20 30 -4 10 5 9 28 -4
19 -10 19 -9 9 10 -11 21 -40 29 -40 11z"/>
<path d="M2864 1781 c3 -5 23 -12 43 -15 21 -4 47 -10 58 -13 11 -3 16 -2 12
3 -7 7 -89 32 -110 34 -5 0 -6 -4 -3 -9z"/>
<path d="M58 1767 c-33 -6 -58 -15 -58 -22 0 -9 12 -10 42 -4 49 9 98 26 98
34 0 6 -7 5 -82 -8z"/>
<path d="M620 1730 c46 -55 62 -65 35 -22 -24 37 -57 72 -68 72 -5 0 10 -22
33 -50z"/>
<path d="M1466 1773 c-11 -12 -6 -20 19 -31 33 -15 35 -15 29 1 -6 16 -40 38
-48 30z"/>
<path d="M1620 1763 c-32 -6 -53 -24 -42 -35 11 -11 44 1 36 13 -3 5 9 9 25 9
17 0 31 5 31 10 0 10 -7 11 -50 3z"/>
<path d="M2384 1741 c-33 -20 -107 -101 -99 -109 7 -7 35 19 35 32 0 6 25 29
55 51 30 22 55 41 55 42 0 7 -18 1 -46 -16z"/>
<path d="M1393 1734 c-7 -3 -9 -12 -6 -21 4 -11 2 -14 -5 -9 -8 5 -10 1 -5
-10 6 -16 7 -15 20 2 11 15 19 46 11 43 -2 0 -8 -3 -15 -5z"/>
<path d="M220 1722 c0 -5 11 -15 25 -22 13 -7 22 -17 19 -21 -3 -5 2 -6 10 -3
9 3 19 -3 26 -16 6 -11 16 -18 21 -14 6 3 -1 15 -16 28 -36 31 -85 59 -85 48z"/>
<path d="M1435 1703 c-4 -15 -13 -45 -21 -66 -18 -49 -18 -63 0 -48 8 7 17 34
21 62 7 48 7 49 43 49 40 0 34 14 -10 25 -24 6 -28 4 -33 -22z"/>
<path d="M2870 1720 c0 -5 21 -10 48 -9 35 0 42 3 27 9 -28 12 -75 12 -75 0z"/>
<path d="M2573 1680 c-13 -10 -23 -23 -23 -29 0 -6 -4 -11 -9 -11 -5 0 -19
-15 -31 -32 -13 -20 0 -9 34 26 57 59 70 79 29 46z"/>
<path d="M1880 1671 c0 -5 23 -28 50 -51 37 -31 50 -37 50 -25 0 9 -9 19 -20
22 -11 3 -20 9 -20 14 0 5 -7 9 -16 9 -8 0 -13 4 -10 8 2 4 -4 13 -15 20 -10
7 -19 8 -19 3z"/>
<path d="M2599 1652 c-60 -61 -99 -115 -98 -135 2 -21 2 -21 6 1 2 12 11 22
20 22 9 0 13 6 9 15 -3 8 -1 14 3 12 5 -1 9 0 9 3 -1 3 23 29 51 58 29 28 47
52 39 51 -7 0 -25 -13 -39 -27z"/>
<path d="M1362 1630 c-11 -24 -17 -53 -14 -68 5 -24 6 -25 12 -7 12 32 29 110
25 113 -2 2 -12 -15 -23 -38z"/>
<path d="M1558 1643 c-3 -24 -9 -29 -43 -34 l-40 -6 48 -2 c32 -1 47 -5 47
-14 0 -8 11 -24 25 -37 l25 -24 -11 32 c-6 18 -15 35 -20 38 -5 3 -9 18 -9 34
0 38 -18 48 -22 13z"/>
<path d="M1141 1635 c-27 -29 -22 -31 19 -10 21 11 36 12 54 5 16 -6 27 -6 31
0 5 9 -15 15 -37 11 -5 0 -8 4 -8 9 0 19 -35 10 -59 -15z"/>
<path d="M1705 1635 c-35 -28 -27 -32 18 -8 18 9 48 16 67 15 31 0 32 0 10 8
-43 14 -64 11 -95 -15z"/>
<path d="M1998 1610 c-4 -24 -1 -43 10 -60 19 -29 30 -10 14 23 -6 12 -13 33
-14 47 -3 21 -5 20 -10 -10z"/>
<path d="M350 1625 c1 -13 78 -90 85 -84 2 3 -16 25 -40 49 -25 24 -45 40 -45
35z"/>
<path d="M1055 1565 c-32 -28 -36 -34 -20 -34 11 -1 27 4 35 9 13 9 13 10 0
10 -13 0 -13 2 0 9 8 6 18 7 24 4 5 -3 6 -1 2 5 -4 7 -1 12 8 12 8 0 18 5 21
10 15 24 -33 7 -70 -25z"/>
<path d="M1657 1586 c-11 -9 -15 -20 -10 -31 4 -13 3 -16 -5 -11 -8 5 -10 2
-6 -8 5 -13 8 -13 20 -2 10 11 29 67 21 66 -1 0 -10 -7 -20 -14z"/>
<path d="M1912 1588 c18 -15 30 -56 18 -60 -4 -2 7 -11 26 -20 32 -17 34 -17
34 0 0 17 -70 92 -86 92 -4 0 -1 -6 8 -12z"/>
<path d="M992 1578 c-7 -7 -12 -19 -12 -27 0 -11 4 -10 20 4 21 19 26 35 12
35 -4 0 -13 -5 -20 -12z"/>
<path d="M1448 1558 c-16 -5 -28 -14 -28 -19 0 -6 9 -5 21 1 11 7 43 9 70 7
27 -3 49 -1 49 4 0 18 -69 22 -112 7z"/>
<path d="M1393 1542 c-12 -8 -28 -72 -18 -72 7 0 38 70 33 76 -2 1 -9 0 -15
-4z"/>
<path d="M1324 1495 c0 -24 2 -45 3 -45 1 0 7 9 13 19 7 14 6 27 -4 45 -13 26
-13 26 -12 -19z"/>
<path d="M959 1495 l-34 -26 37 5 c20 2 47 14 59 25 l23 21 -25 0 c-14 0 -41
-11 -60 -25z"/>
<path d="M1591 1497 c15 -12 29 -31 32 -42 4 -18 5 -18 6 3 1 24 -31 62 -51
62 -7 -1 -1 -11 13 -23z"/>
<path d="M712 1480 c-1 -19 -5 -46 -7 -60 l-6 -25 11 25 c6 13 9 40 7 60 l-4
35 -1 -35z"/>
<path d="M900 1503 c-25 -9 -40 -25 -34 -34 6 -10 25 -1 59 25 21 16 7 21 -25
9z"/>
<path d="M2022 1470 c12 -35 28 -49 28 -23 -1 18 -22 53 -33 53 -3 0 -1 -14 5
-30z"/>
<path d="M526 1430 c3 -25 9 -61 14 -80 8 -35 8 -35 9 -5 0 17 -6 53 -14 80
l-14 50 5 -45z"/>
<path d="M1667 1435 c3 -22 9 -47 14 -55 14 -25 9 20 -6 60 l-14 35 6 -40z"/>
<path d="M1358 1440 c-9 -14 -19 -41 -22 -60 l-7 -35 20 24 c12 12 18 27 15
32 -3 6 0 16 6 24 7 8 10 20 8 27 -3 8 -10 3 -20 -12z"/>
<path d="M2060 1450 c0 -10 8 -17 53 -51 15 -11 27 -27 27 -36 0 -16 36 -53
52 -53 20 0 4 31 -35 66 -73 66 -97 84 -97 74z"/>
<path d="M2130 1454 c0 -5 14 -25 30 -44 29 -34 38 -27 20 15 -6 14 -9 15 -10
5 0 -11 -6 -8 -20 9 -11 13 -20 19 -20 15z"/>
<path d="M827 1425 c-4 -8 -13 -15 -22 -15 -8 0 -15 -6 -15 -12 -1 -7 -10 -2
-22 12 -14 16 -19 19 -15 8 7 -21 -1 -50 -13 -43 -4 3 -10 -2 -14 -10 -12 -31
41 -10 88 36 16 16 27 31 24 34 -3 3 -8 -1 -11 -10z"/>
<path d="M880 1427 c-8 -7 -22 -21 -30 -31 -12 -16 -12 -18 -1 -11 9 5 12 4 7
-3 -4 -6 -13 -9 -20 -6 -7 3 -19 -2 -26 -11 -11 -13 -9 -15 9 -15 24 0 65 36
56 50 -4 6 -2 10 3 10 6 0 12 7 16 15 6 18 5 18 -14 2z"/>
<path d="M490 1369 c0 -24 5 -51 10 -59 6 -10 8 3 5 39 -5 66 -15 80 -15 20z"/>
<path d="M1282 1384 c-14 -10 -21 -22 -17 -31 3 -9 0 -22 -6 -29 -13 -15 -1
-18 19 -5 10 6 36 81 28 81 -1 0 -12 -7 -24 -16z"/>
<path d="M660 1347 c-19 -23 -26 -35 -15 -26 11 9 28 19 38 22 9 4 17 16 17
27 0 25 2 26 -40 -23z"/>
<path d="M2221 1374 c-1 -13 19 -38 56 -70 31 -27 87 -80 126 -119 54 -55 68
-65 63 -45 -3 14 -6 30 -6 36 0 6 -10 12 -22 12 -24 0 -178 140 -178 161 0 6
-6 11 -14 11 -8 0 -17 8 -19 18 -4 14 -5 13 -6 -4z"/>
<path d="M1635 1357 c-8 -30 -1 -57 15 -57 12 0 13 50 1 69 -8 12 -11 9 -16
-12z"/>
<path d="M1319 1324 c-9 -11 -19 -32 -23 -49 l-7 -30 26 26 c17 17 26 34 23
49 -3 22 -4 22 -19 4z"/>
<path d="M1691 1323 c1 -30 15 -58 22 -46 7 11 -8 63 -18 63 -3 0 -5 -8 -4
-17z"/>
<path d="M739 1311 c-13 -11 -21 -22 -18 -26 9 -8 79 26 73 37 -9 13 -30 9
-55 -11z"/>
<path d="M850 1316 c14 -8 43 -17 65 -20 l40 -6 -30 14 c-16 7 -46 17 -65 20
-35 7 -35 6 -10 -8z"/>
<path d="M668 1299 c-20 -10 -48 -29 -62 -42 -42 -38 -54 -46 -60 -39 -7 6
-26 -16 -26 -31 0 -7 48 20 60 33 3 3 25 18 50 33 56 33 85 56 79 61 -2 2 -21
-4 -41 -15z"/>
<path d="M2255 1272 c9 -18 20 -30 25 -27 6 4 10 3 10 -2 0 -4 18 -28 40 -53
22 -25 38 -50 36 -57 -4 -9 44 -43 61 -43 12 0 -28 50 -103 127 -63 64 -81 79
-69 55z"/>
<path d="M1245 1263 c-14 -16 -23 -34 -20 -41 3 -8 5 -19 5 -25 1 -14 16 11
36 58 17 42 13 44 -21 8z"/>
<path d="M1665 1250 c-4 -23 -4 -44 -1 -47 3 -4 6 -1 6 6 0 7 5 9 11 6 7 -5 8
5 3 32 -9 51 -11 51 -19 3z"/>
<path d="M591 1187 c-63 -48 -88 -73 -77 -75 21 -5 69 26 61 38 -4 6 -1 10 5
10 14 0 107 71 114 88 10 22 -7 12 -103 -61z"/>
<path d="M1092 1212 c26 -29 53 -66 60 -82 7 -17 17 -30 22 -30 4 0 5 -11 2
-24 -3 -14 -2 -27 3 -31 13 -7 41 35 40 60 0 11 -3 14 -6 8 -9 -24 -33 -13
-50 22 -9 19 -20 35 -25 35 -4 0 -8 6 -9 13 0 6 -19 28 -42 47 l-42 35 47 -53z"/>
<path d="M1720 1232 c0 -35 9 -62 20 -62 8 0 -6 80 -16 89 -2 2 -4 -10 -4 -27z"/>
<path d="M485 1179 c-16 -30 -16 -30 4 -19 12 6 21 20 21 30 0 28 -7 25 -25
-11z"/>
<path d="M428 1153 c-15 -16 -28 -34 -30 -41 -2 -8 -20 -32 -40 -54 -21 -22
-38 -44 -38 -49 0 -5 18 11 41 36 22 24 40 46 39 50 0 3 13 20 30 38 26 28 37
47 27 47 -2 0 -15 -12 -29 -27z"/>
<path d="M1824 1158 c-4 -7 -14 -24 -23 -38 -14 -23 -12 -22 17 5 17 17 32 33
32 38 0 12 -18 8 -26 -5z"/>
<path d="M1700 1157 c0 -1 4 -18 10 -36 6 -21 6 -39 1 -45 -6 -7 -4 -21 4 -36
l13 -25 8 29 c4 17 2 36 -5 47 -6 10 -11 30 -11 44 0 14 -4 25 -10 25 -5 0
-10 -1 -10 -3z"/>
<path d="M1250 1119 c-6 -11 -10 -25 -8 -31 5 -14 38 19 38 38 0 21 -18 17
-30 -7z"/>
<path d="M2497 1111 c3 -10 18 -32 35 -47 l30 -29 -16 30 c-30 58 -59 84 -49
46z"/>
<path d="M1315 1090 l-40 -19 35 6 c19 4 46 12 60 20 42 22 -7 16 -55 -7z"/>
<path d="M1515 1095 c29 -14 134 -42 130 -34 -6 8 -52 23 -110 34 -16 3 -25 3
-20 0z"/>
<path d="M1792 1077 c-12 -13 -22 -32 -21 -43 0 -18 1 -18 9 1 5 11 9 16 9 10
1 -5 8 3 16 19 20 37 14 42 -13 13z"/>
<path d="M2205 1086 c-68 -18 -98 -31 -114 -50 -7 -9 -10 -16 -6 -16 4 0 13 7
19 15 6 9 25 16 43 18 17 1 29 6 25 11 -3 5 2 7 10 3 16 -6 91 12 104 26 11
10 -23 7 -81 -7z"/>
<path d="M475 1080 c-4 -6 -10 -8 -15 -5 -5 3 -32 -17 -62 -45 -33 -31 -47
-49 -37 -50 9 0 35 20 57 44 23 24 42 40 44 34 2 -5 12 0 22 11 11 12 14 21 8
21 -6 0 -14 -5 -17 -10z"/>
<path d="M952 1016 c44 -46 66 -72 89 -109 24 -40 25 -26 2 16 -21 38 -102
127 -116 127 -5 0 6 -15 25 -34z"/>
<path d="M1220 1031 c-5 -11 -10 -28 -10 -38 0 -13 5 -10 20 12 11 17 20 33
20 38 0 14 -20 7 -30 -12z"/>
<path d="M2579 1033 c5 -10 21 -29 36 -43 22 -20 26 -21 17 -5 -15 26 -49 65
-56 65 -4 0 -2 -8 3 -17z"/>
<path d="M880 1015 c7 -8 16 -12 21 -9 5 3 9 1 9 -5 0 -5 14 -19 30 -31 41
-29 38 -17 -7 25 -38 35 -79 51 -53 20z"/>
<path d="M1683 1005 c15 -13 27 -27 26 -30 0 -3 2 -11 4 -18 3 -6 6 0 6 14 1
18 -7 32 -24 43 -36 24 -44 19 -12 -9z"/>
<path d="M2509 1012 c11 -20 63 -52 84 -52 11 0 -43 43 -76 61 -16 9 -17 8 -8
-9z"/>
<path d="M1158 965 c-17 -33 -31 -85 -23 -85 10 0 46 82 43 98 -3 13 -8 9 -20
-13z"/>
<path d="M1756 960 c-4 -14 -3 -36 2 -49 12 -33 20 -7 12 39 -6 33 -7 34 -14
10z"/>
<path d="M1197 929 c-8 -19 -25 -61 -37 -94 -12 -33 -26 -68 -31 -77 -14 -28
-12 -45 5 -28 7 8 26 56 41 105 16 50 33 96 38 103 5 7 7 15 4 18 -3 4 -13 -9
-20 -27z"/>
<path d="M1565 883 c17 -3 34 -9 40 -14 5 -5 17 -9 27 -9 9 0 34 -9 55 -21 26
-14 33 -16 23 -5 -21 21 -118 56 -150 55 -22 -2 -21 -3 5 -6z"/>
<path d="M1121 857 c0 -10 -8 -20 -16 -23 -8 -3 -19 -22 -25 -42 -18 -66 -10
-68 20 -7 17 32 29 66 26 75 -3 12 -4 11 -5 -3z"/>
<path d="M1578 834 c24 -9 46 -13 49 -10 10 10 1 13 -47 20 l-45 6 43 -16z"/>
<path d="M1780 817 c0 -36 -1 -37 -22 -26 -25 14 -26 14 29 -55 l23 -28 -6 58
c-8 73 -23 105 -24 51z"/>
<path d="M1880 816 c-5 -15 -14 -25 -19 -22 -14 9 -23 -43 -11 -62 8 -13 9
-11 5 13 -3 17 -2 24 1 17 4 -9 13 1 25 29 11 23 17 44 14 47 -2 3 -9 -7 -15
-22z"/>
<path d="M2585 813 c1 -10 -7 -31 -19 -48 l-20 -29 26 19 c31 23 40 39 32 60
-8 21 -23 19 -19 -2z"/>
<path d="M2701 799 l-24 -31 23 -21 22 -22 -12 24 c-8 15 -8 26 -2 30 9 6 27
52 20 50 -2 0 -14 -14 -27 -30z"/>
<path d="M2642 808 c-14 -14 -16 -48 -2 -48 10 0 30 32 30 49 0 14 -13 14 -28
-1z"/>
<path d="M2675 721 c3 -17 2 -39 -4 -50 -7 -13 -8 -22 -1 -26 5 -3 10 -1 10 5
0 6 7 18 15 26 13 14 13 19 0 45 -20 37 -28 37 -20 0z"/>
<path d="M1750 731 c0 -6 5 -13 10 -16 6 -4 21 -27 35 -53 13 -26 24 -40 25
-31 0 8 -13 36 -30 62 -29 46 -40 56 -40 38z"/>
<path d="M2608 734 c-4 -4 0 -20 8 -36 12 -24 18 -27 30 -17 8 6 14 18 14 26
0 13 -3 13 -15 3 -12 -10 -16 -8 -23 9 -4 12 -11 19 -14 15z"/>
<path d="M1038 635 c-4 -11 -9 -38 -12 -60 l-5 -40 15 45 c8 25 13 52 11 60
-2 11 -5 9 -9 -5z"/>
<path d="M1074 587 c-6 -26 -7 -47 -2 -47 10 0 20 43 16 71 -2 16 -6 9 -14
-24z"/>
<path d="M1834 605 c4 -25 24 -75 30 -75 6 0 -10 55 -23 77 -10 17 -11 17 -7
-2z"/>
</g>
</svg>
